<?xml version="1.0" encoding="UTF-8"?>
<svg xmlns="http://www.w3.org/2000/svg" xmlns:xlink="http://www.w3.org/1999/xlink" viewBox="0 0 24 24" width="24px" height="24px">
<g id="surface27777938">
<path style=" stroke:none;fill-rule:nonzero;fill:rgb(100%,100%,100%);fill-opacity:1;" d="M 4.25 2 C 3.015625 2 2 3.015625 2 4.25 L 2 17.25 C 2 18.484375 3.015625 19.5 4.25 19.5 L 17.25 19.5 C 18.484375 19.5 19.5 18.484375 19.5 17.25 L 19.5 4.25 C 19.5 3.015625 18.484375 2 17.25 2 Z M 4.25 3.5 L 17.25 3.5 C 17.671875 3.5 18 3.828125 18 4.25 L 18 17.25 C 18 17.671875 17.671875 18 17.25 18 L 4.25 18 C 3.828125 18 3.5 17.671875 3.5 17.25 L 3.5 4.25 C 3.5 3.828125 3.828125 3.5 4.25 3.5 Z M 20.5 4.636719 L 20.5 17.75 C 20.5 19.265625 19.265625 20.5 17.75 20.5 L 4.636719 20.5 C 4.949219 21.371094 5.773438 22 6.75 22 L 17.75 22 C 20.09375 22 22 20.09375 22 17.75 L 22 6.75 C 22 5.773438 21.371094 4.949219 20.5 4.636719 Z M 20.5 4.636719 "/>
</g>
</svg>
