<?xml version="1.0" encoding="UTF-8"?>
<svg xmlns="http://www.w3.org/2000/svg" xmlns:xlink="http://www.w3.org/1999/xlink" viewBox="0 0 24 24" width="24px" height="24px">
<g id="surface11734941">
<path style=" stroke:none;fill-rule:nonzero;fill:rgb(100%,100%,100%);fill-opacity:1;" d="M 15.75 2.5 C 12.308594 2.5 9.5 5.308594 9.5 8.75 C 9.5 9.453125 9.648438 10.117188 9.863281 10.75 L 3.804688 16.804688 C 2.738281 17.875 2.738281 19.628906 3.804688 20.695312 C 4.339844 21.226562 5.046875 21.5 5.75 21.5 C 6.453125 21.5 7.160156 21.226562 7.695312 20.695312 L 13.75 14.636719 C 14.382812 14.851562 15.046875 15 15.75 15 C 19.195312 15 22 12.191406 22 8.75 C 22 7.75 21.757812 6.804688 21.34375 5.96875 C 21.234375 5.753906 21.03125 5.601562 20.792969 5.5625 C 20.554688 5.523438 20.3125 5.601562 20.140625 5.773438 L 16.707031 9.207031 C 16.507812 9.40625 16.257812 9.5 16 9.5 C 15.742188 9.5 15.492188 9.40625 15.292969 9.207031 C 14.894531 8.8125 14.894531 8.191406 15.292969 7.792969 L 18.726562 4.359375 C 18.898438 4.1875 18.976562 3.945312 18.9375 3.707031 C 18.898438 3.46875 18.746094 3.265625 18.53125 3.160156 C 17.695312 2.742188 16.75 2.5 15.75 2.5 Z M 15.75 4 C 16.125 4 16.488281 4.046875 16.835938 4.128906 L 14.230469 6.734375 C 13.261719 7.703125 13.261719 9.296875 14.230469 10.269531 C 14.71875 10.753906 15.359375 11 16 11 C 16.640625 11 17.28125 10.753906 17.765625 10.269531 L 20.371094 7.664062 C 20.457031 8.011719 20.5 8.375 20.5 8.75 C 20.5 11.382812 18.382812 13.5 15.75 13.5 C 15.070312 13.5 14.429688 13.355469 13.84375 13.097656 C 13.5625 12.972656 13.230469 13.035156 13.011719 13.253906 L 6.632812 19.632812 C 6.386719 19.882812 6.070312 20 5.75 20 C 5.429688 20 5.113281 19.882812 4.863281 19.632812 C 4.371094 19.140625 4.371094 18.359375 4.867188 17.867188 L 11.246094 11.488281 C 11.464844 11.269531 11.527344 10.9375 11.402344 10.65625 C 11.144531 10.070312 11 9.429688 11 8.75 C 11 6.117188 13.117188 4 15.75 4 Z M 15.75 4 "/>
</g>
</svg>
